<svg xmlns="http://www.w3.org/2000/svg" viewBox="0 0 1200 800">
  <rect width="1200" height="800" fill="#14231d"/>
  <g fill="#f4efe8" opacity="0.9">
    <rect x="160" y="180" width="160" height="120" rx="18"/>
    <rect x="350" y="180" width="120" height="120" rx="18"/>
    <rect x="510" y="180" width="220" height="120" rx="18"/>
    <rect x="770" y="180" width="120" height="120" rx="18"/>
    <rect x="160" y="340" width="120" height="120" rx="18"/>
    <rect x="320" y="340" width="260" height="120" rx="18"/>
    <rect x="620" y="340" width="120" height="120" rx="18"/>
    <rect x="780" y="340" width="260" height="120" rx="18"/>
    <rect x="160" y="500" width="220" height="120" rx="18"/>
    <rect x="420" y="500" width="160" height="120" rx="18"/>
    <rect x="620" y="500" width="160" height="120" rx="18"/>
    <rect x="820" y="500" width="220" height="120" rx="18"/>
  </g>
  <text x="110" y="110" fill="#f4efe8" font-family="Georgia, serif" font-size="58">Procedural Level Generation</text>
</svg>
